<svg width="15" height="16" viewBox="0 0 15 16" fill="none" xmlns="http://www.w3.org/2000/svg">
<path d="M6.87525 11.4377C6.87525 10.6321 7.10969 9.88125 7.51412 9.24975L2.65799 9.25013C1.88172 9.25013 1.25244 9.87938 1.25244 10.6557V11.2306C1.25244 11.5882 1.36394 11.9368 1.57142 12.228C2.53527 13.5808 4.11212 14.2508 6.25025 14.2508C6.83231 14.2508 7.37287 14.2012 7.87006 14.1011C7.25037 13.3879 6.87525 12.4566 6.87525 11.4377ZM9.37525 4.87805C9.37525 3.15216 7.97612 1.75305 6.25025 1.75305C4.52433 1.75305 3.12522 3.15216 3.12522 4.87805C3.12522 6.60395 4.52433 8.00306 6.25025 8.00306C7.97612 8.00306 9.37525 6.60395 9.37525 4.87805ZM14.3752 11.4376C14.3752 9.53919 12.8362 8.00013 10.9377 8.00013C9.03925 8.00013 7.50025 9.53919 7.50025 11.4376C7.50025 13.3361 9.03925 14.8751 10.9377 14.8751C12.8362 14.8751 14.3752 13.3361 14.3752 11.4376ZM10.8816 9.25519L10.9377 9.25013L10.9939 9.25519C11.1214 9.27831 11.2221 9.37894 11.2452 9.5065L11.2502 9.56263L11.2496 11.1251H12.8152L12.8714 11.1302C12.9989 11.1533 13.0995 11.2539 13.1226 11.3815L13.1277 11.4376L13.1226 11.4938C13.0995 11.6214 12.9989 11.7219 12.8714 11.7451L12.8152 11.7501H11.2496L11.2502 13.3126L11.2452 13.3688C11.2221 13.4964 11.1214 13.5969 10.9939 13.6201L10.9377 13.6251L10.8816 13.6201C10.754 13.5969 10.6534 13.4964 10.6302 13.3688L10.6252 13.3126L10.6246 11.7501H9.06519L9.009 11.7451C8.88144 11.7219 8.78087 11.6214 8.75768 11.4938L8.75269 11.4376L8.75768 11.3815C8.78087 11.2539 8.88144 11.1533 9.009 11.1302L9.06519 11.1251H10.6246L10.6252 9.56263L10.6302 9.5065C10.6534 9.37894 10.754 9.27831 10.8816 9.25519Z" fill="#ADADAD"/>
</svg>
