<svg width="16" height="16" viewBox="0 0 16 16" fill="none" xmlns="http://www.w3.org/2000/svg">
<path d="M6.979 2.75H9.979C9.979 1.92157 9.30745 1.25 8.479 1.25C7.65055 1.25 6.979 1.92157 6.979 2.75ZM5.854 2.75C5.854 1.30025 7.02925 0.125 8.479 0.125C9.92875 0.125 11.104 1.30025 11.104 2.75H15.4165C15.7272 2.75 15.979 3.00184 15.979 3.3125C15.979 3.62316 15.7272 3.875 15.4165 3.875H14.4272L13.5482 12.9584C13.4087 14.4001 12.1971 15.5 10.7487 15.5H6.20927C4.76091 15.5 3.54937 14.4001 3.40985 12.9584L2.53081 3.875H1.5415C1.23085 3.875 0.979004 3.62316 0.979004 3.3125C0.979004 3.00184 1.23085 2.75 1.5415 2.75H5.854ZM7.354 6.3125C7.354 6.00184 7.10215 5.75 6.7915 5.75C6.48085 5.75 6.229 6.00184 6.229 6.3125V11.9375C6.229 12.2481 6.48085 12.5 6.7915 12.5C7.10215 12.5 7.354 12.2481 7.354 11.9375V6.3125ZM10.1665 5.75C9.85585 5.75 9.604 6.00184 9.604 6.3125V11.9375C9.604 12.2481 9.85585 12.5 10.1665 12.5C10.4772 12.5 10.729 12.2481 10.729 11.9375V6.3125C10.729 6.00184 10.4772 5.75 10.1665 5.75Z" fill="#c20735"/>
</svg>
